<?xml version="1.0" standalone="no"?>
<!DOCTYPE svg PUBLIC "-//W3C//DTD SVG 20010904//EN"
 "http://www.w3.org/TR/2001/REC-SVG-20010904/DTD/svg10.dtd">
<svg version="1.0" xmlns="http://www.w3.org/2000/svg"
 width="902.000000pt" height="1280.000000pt" viewBox="0 0 902.000000 1280.000000"
 preserveAspectRatio="xMidYMid meet">
<metadata>
Created by potrace 1.15, written by Peter Selinger 2001-2017
</metadata>
<g transform="translate(0.000000,1280.000000) scale(0.100000,-0.100000)"
fill="#000000" stroke="none">
<path d="M6663 12712 c-34 -10 -64 -20 -68 -23 -3 -4 343 -1383 770 -3065 426
-1682 775 -3061 775 -3065 0 -13 -280 -323 -286 -317 -2 2 -24 71 -49 154 -25
82 -47 154 -50 161 -3 8 -41 -11 -107 -53 -229 -145 -549 -281 -891 -377 l-86
-24 -42 69 c-22 39 -37 73 -33 78 5 4 82 32 171 61 90 30 163 57 163 60 0 3
-23 36 -51 74 -181 238 -340 586 -454 990 -37 134 -80 316 -90 386 -10 69 -14
72 -93 71 -128 -1 -370 -72 -646 -187 l-151 -64 -3 -75 c-3 -72 -4 -76 -26
-76 l-24 0 19 88 c22 100 54 201 80 253 13 26 34 45 71 64 29 15 57 30 61 34
4 4 -18 14 -50 21 -65 15 -273 15 -698 0 -143 -5 -288 -10 -322 -10 l-63 0 0
40 c0 33 4 40 23 44 83 17 198 47 229 60 39 17 108 72 108 86 0 5 13 37 29 72
87 193 168 480 215 771 34 209 46 344 46 522 0 361 -80 528 -258 541 -359 26
-931 64 -960 64 -7 0 210 174 483 386 l496 385 45 -22 c90 -43 198 -14 255 69
35 52 38 143 7 202 -60 112 -213 137 -312 51 -54 -48 -76 -163 -43 -228 l17
-32 -38 -12 c-64 -21 -216 -94 -329 -159 -204 -117 -595 -392 -814 -571 l-66
-54 -136 7 -137 7 -193 194 c-233 234 -433 388 -590 453 l-43 17 4 61 c3 50
-1 69 -20 106 -64 120 -217 142 -314 45 -130 -131 -30 -347 155 -333 39 3 68
11 90 27 32 23 33 23 51 5 10 -11 131 -140 270 -289 l252 -270 -423 -6 c-328
-4 -449 -9 -534 -23 -187 -29 -259 -80 -226 -159 29 -69 60 -210 70 -318 25
-264 8 -896 -37 -1393 -20 -216 -25 -198 72 -231 95 -31 487 -85 624 -85 38 0
42 -2 42 -26 l0 -25 -117 6 c-456 24 -671 50 -821 102 -40 14 -76 23 -79 20
-3 -4 -15 -124 -26 -269 -11 -145 -21 -264 -22 -266 -3 -3 -169 -30 -172 -28
-1 1 3 50 8 110 6 59 7 111 4 115 -4 3 -115 6 -248 6 -235 -1 -370 -12 -566
-48 l-65 -12 3 -105 c3 -154 -29 -342 -125 -725 -42 -170 -133 -493 -188 -670
-14 -43 -24 -80 -22 -82 1 -2 97 -10 212 -19 115 -9 211 -18 213 -20 2 -1 0
-42 -4 -89 l-7 -86 -36 5 c-21 3 -86 6 -147 8 l-109 3 -24 -80 c-102 -347
-188 -902 -236 -1522 l-6 -71 118 -7 c64 -4 132 -10 150 -14 l34 -6 -161 -128
c-89 -71 -161 -134 -161 -140 0 -19 161 -841 166 -846 2 -2 58 28 124 68 80
48 120 78 120 89 -1 9 -16 138 -33 285 l-33 268 66 38 c36 21 83 49 106 61
l41 24 112 -64 c62 -34 115 -69 118 -77 3 -8 -9 -138 -27 -289 -17 -152 -30
-276 -29 -278 21 -15 243 -146 244 -144 3 4 165 841 165 853 0 6 -65 62 -145
125 -80 63 -141 116 -137 118 4 1 57 -2 117 -6 61 -5 112 -7 114 -5 3 2 33
355 67 786 34 430 65 805 67 834 l5 52 -36 6 c-20 3 -82 7 -136 10 -54 2 -102
8 -106 12 -4 4 -10 48 -13 97 l-5 89 97 -7 c53 -4 122 -9 153 -13 l57 -5 5 33
c3 19 24 270 46 559 23 289 43 530 44 535 3 9 165 49 172 42 2 -1 -6 -113 -16
-247 -40 -503 -130 -1713 -145 -1945 -8 -132 -16 -264 -18 -292 -3 -43 -1 -53
12 -53 9 0 95 9 191 19 270 30 881 83 887 77 1 -1 -1 -24 -5 -51 -6 -43 -10
-50 -32 -53 -72 -10 -196 -49 -282 -89 l-96 -45 -6 -92 c-3 -50 -17 -424 -31
-831 -45 -1314 -95 -2473 -115 -2654 -5 -47 -8 -86 -7 -87 1 -1 92 7 202 18
157 16 275 21 545 21 341 1 403 -3 578 -39 l32 -7 0 1871 0 1870 -77 20 c-71
19 -188 40 -315 57 l-48 6 0 53 0 53 98 6 c53 4 319 10 590 13 l492 7 0 -50 0
-51 -82 -7 c-121 -10 -330 -34 -335 -38 -2 -2 3 -46 11 -98 38 -241 53 -859
37 -1559 -15 -699 -46 -1600 -67 -1956 l-7 -111 39 -6 c22 -4 78 -7 127 -7 48
0 87 -1 87 -3 0 -2 -74 -174 -165 -382 -91 -208 -165 -386 -165 -395 0 -38 21
-41 382 -56 194 -7 530 -21 746 -29 372 -15 395 -15 413 1 10 9 19 21 19 27 0
15 -382 821 -397 837 -11 12 -57 16 -254 19 -132 2 -238 5 -236 7 7 8 281 53
481 79 105 15 192 28 194 29 2 2 -2 222 -9 487 -15 645 -16 2305 0 2601 11
212 21 330 36 404 7 30 6 31 -69 62 -101 43 -216 70 -356 83 l-115 12 4 43 3
44 52 -5 c28 -2 112 -9 186 -15 242 -19 446 -52 594 -95 104 -30 114 -35 185
-88 l54 -40 -7 159 c-36 847 -34 1707 5 2282 l12 172 97 0 98 0 40 -92 c177
-408 237 -602 277 -893 9 -66 18 -122 20 -123 2 -2 83 24 180 57 97 34 181 61
186 61 16 0 62 -102 49 -110 -6 -4 -50 -13 -98 -20 -124 -18 -122 -16 -122
-106 0 -139 60 -373 163 -639 l54 -140 49 -8 c72 -12 206 0 316 28 53 13 226
72 384 130 291 108 449 156 629 194 111 23 317 51 372 51 41 0 42 -19 -16 173
-21 70 -35 127 -30 127 5 0 84 -29 176 -65 92 -36 174 -65 183 -65 11 0 35
-77 99 -333 46 -182 88 -346 93 -363 l8 -32 83 21 c45 11 83 21 84 22 2 1 -2
17 -7 36 -6 19 -51 194 -100 389 -50 195 -92 364 -96 375 -4 17 37 58 232 230
130 116 242 213 248 218 7 5 3 14 -13 26 -23 17 -23 19 -6 44 9 15 16 27 14
28 -2 0 -150 37 -329 82 l-325 82 -83 325 c-45 179 -123 485 -172 680 -50 195
-130 515 -180 710 -50 195 -130 515 -180 710 -49 195 -268 1057 -485 1915
-218 858 -414 1633 -437 1723 -45 181 -35 170 -135 144z m-2513 -4756 c0 -24
-1 -24 -132 -30 -73 -3 -340 -7 -593 -9 -416 -2 -460 0 -463 14 -3 15 45 17
495 23 274 4 534 11 578 15 44 4 88 8 98 9 12 2 17 -5 17 -22z m-2241 -60
c134 -20 321 -35 526 -44 l160 -7 3 -87 3 -88 196 0 195 0 -6 68 c-4 37 -10
75 -12 85 -5 16 16 17 348 17 194 0 458 3 587 7 l234 6 -8 -106 c-6 -87 -4
-107 7 -107 7 0 83 -9 168 -20 85 -11 161 -20 168 -20 9 0 12 32 12 129 l0
129 93 6 c143 9 838 29 842 24 2 -2 -7 -33 -22 -68 -14 -36 -40 -123 -57 -194
l-32 -129 -80 2 c-43 1 -103 4 -133 7 -53 7 -54 6 -48 -17 3 -13 16 -102 29
-196 l23 -173 83 0 83 0 -6 -52 c-35 -303 -51 -1055 -36 -1685 6 -287 14 -567
18 -621 l6 -99 -100 33 c-167 54 -402 92 -716 115 l-168 13 5 35 c3 20 7 54 8
76 l3 40 -130 27 c-72 15 -144 29 -161 33 l-32 5 -8 -101 -9 -101 -200 1
c-213 2 -925 -16 -962 -24 -22 -5 -23 -2 -23 55 0 69 20 58 -185 100 -92 19
-132 24 -137 16 -4 -6 -8 -36 -8 -66 0 -30 -3 -71 -6 -91 l-6 -35 -172 -13
c-177 -12 -514 -43 -719 -65 -65 -7 -119 -10 -121 -7 -4 9 26 430 89 1276 93
1222 89 1185 105 1195 7 4 33 11 57 15 l44 6 -2 166 -1 165 -44 -5 c-40 -4
-43 -3 -39 17 2 11 9 98 15 191 6 94 13 180 15 191 l5 21 77 -18 c42 -10 124
-25 182 -33z m6536 -1736 c-3 -5 -10 -10 -16 -10 -5 0 -9 5 -9 10 0 6 7 10 16
10 8 0 12 -4 9 -10z m-188 -50 c5 -22 9 -40 7 -40 -12 0 -54 25 -54 32 0 14
20 48 28 48 4 0 13 -18 19 -40z"/>
<path d="M4269 7231 c-26 -26 -29 -36 -29 -93 0 -71 15 -102 55 -112 32 -8 74
13 110 56 24 28 27 38 22 82 -3 38 -11 55 -31 73 -39 33 -90 31 -127 -6z"/>
<path d="M5106 5747 c-63 -293 -178 -498 -323 -574 -107 -56 -258 -90 -425
-95 -47 -2 -85 -5 -83 -6 5 -5 749 -211 752 -208 3 3 102 961 99 963 -1 2 -11
-34 -20 -80z"/>
<path d="M2116 820 c-21 -8 -580 -629 -590 -656 -8 -18 -6 -28 6 -40 16 -16
68 -19 983 -44 209 -5 468 -13 576 -16 l197 -7 16 26 c17 25 16 28 -182 374
l-199 348 -84 7 c-102 8 -705 15 -723 8z"/>
</g>
</svg>